<svg id="visual" viewBox="0 0 960 300" width="960" height="300" xmlns="http://www.w3.org/2000/svg" xmlns:xlink="http://www.w3.org/1999/xlink" version="1.1"><rect x="0" y="0" width="960" height="300" fill="#22252C"></rect><path d="M0 44L22.8 41.8C45.7 39.7 91.3 35.3 137 37.8C182.7 40.3 228.3 49.7 274 51.5C319.7 53.3 365.3 47.7 411.2 42.3C457 37 503 32 548.8 29.5C594.7 27 640.3 27 686 29.7C731.7 32.3 777.3 37.7 823 41C868.7 44.3 914.3 45.7 937.2 46.3L960 47L960 0L937.2 0C914.3 0 868.7 0 823 0C777.3 0 731.7 0 686 0C640.3 0 594.7 0 548.8 0C503 0 457 0 411.2 0C365.3 0 319.7 0 274 0C228.3 0 182.7 0 137 0C91.3 0 45.7 0 22.8 0L0 0Z" fill="#07a072" stroke-linecap="round" stroke-linejoin="miter"></path></svg>