<svg id="visual" viewBox="0 0 960 300" width="960" height="300" xmlns="http://www.w3.org/2000/svg" xmlns:xlink="http://www.w3.org/1999/xlink" version="1.1"><rect x="0" y="0" width="960" height="300" fill="#22252C"></rect><path d="M0 97L22.8 91.5C45.7 86 91.3 75 137 68.3C182.7 61.7 228.3 59.3 274 62.7C319.7 66 365.3 75 411.2 74.7C457 74.3 503 64.7 548.8 59.8C594.7 55 640.3 55 686 62.2C731.7 69.3 777.3 83.7 823 94.7C868.7 105.7 914.3 113.3 937.2 117.2L960 121L960 0L937.2 0C914.3 0 868.7 0 823 0C777.3 0 731.7 0 686 0C640.3 0 594.7 0 548.8 0C503 0 457 0 411.2 0C365.3 0 319.7 0 274 0C228.3 0 182.7 0 137 0C91.3 0 45.7 0 22.8 0L0 0Z" fill="#07a072" stroke-linecap="round" stroke-linejoin="miter"></path></svg>